<svg xmlns="http://www.w3.org/2000/svg" width="60" height="60" viewBox="0 0 24 24">
  <defs>
    <linearGradient id="grad" x1="0%" y1="0%" x2="100%" y2="0%">
      <stop offset="0%" stop-color="#f56565"/> <!-- from-red-500 -->
      <stop offset="100%" stop-color="#f97316"/> <!-- to-orange-500 -->
    </linearGradient>
  </defs>
  
  <!-- Background rectangle with rounded corners -->
  <rect x="0" y="0" width="24" height="24" rx="4" ry="4" fill="url(#grad)" />
  
  <!-- Graduation cap icon -->
  <g transform="scale(0.9) translate(1.2,1.2)" stroke="white" stroke-width="2" stroke-linecap="round" stroke-linejoin="round" fill="none">
    <path d="M21.42 10.922a1 1 0 0 0-.019-1.838L12.83 5.18a2 2 0 0 0-1.66 0L2.6 9.08a1 1 0 0 0 0 1.832l8.57 3.908a2 2 0 0 0 1.66 0z"/>
    <path d="M22 10v6"/>
    <path d="M6 12.5V16a6 3 0 0 0 12 0v-3.5"/>
  </g>
</svg>
